<?xml version="1.0" encoding="UTF-8" standalone="no"?>
<svg width="60px" height="60px" viewBox="0 0 60 60" version="1.1" xmlns="http://www.w3.org/2000/svg" xmlns:xlink="http://www.w3.org/1999/xlink" xmlns:sketch="http://www.bohemiancoding.com/sketch/ns">
    <!-- Generator: Sketch 3.2.2 (9983) - http://www.bohemiancoding.com/sketch -->
    <title>Chickenmeat</title>
    <desc>Created with Sketch.</desc>
    <defs></defs>
    <g id="stroked" stroke="none" stroke-width="1" fill="none" fill-rule="evenodd" sketch:type="MSPage">
        <g id="Kitchen" sketch:type="MSLayerGroup" transform="translate(-847.000000, -838.000000)" stroke="#535353" stroke-width="2" stroke-linecap="round" stroke-linejoin="round">
            <g id="Chickenmeat" transform="translate(875.880465, 866.500000) rotate(-45.000000) translate(-875.880465, -866.500000) translate(859.880465, 836.000000)" sketch:type="MSShapeGroup">
                <ellipse id="Oval-712" cx="16" cy="40.5" rx="16" ry="20.5"></ellipse>
                <path d="M4,40.5 C4,49.0604136 9.372583,56 16,56" id="Oval-714"></path>
                <path d="M13,7.87398251 L13,21 L20,21 L20,7.87398251 C21.7252272,7.42993972 23,5.86383943 23,4 C23,1.790861 21.209139,0 19,0 C18.0540533,0 17.184799,0.32835916 16.5,0.877314523 C15.815201,0.32835916 14.9459467,0 14,0 C11.790861,0 10,1.790861 10,4 C10,5.86383943 11.2747728,7.42993972 13,7.87398251 Z" id="Rectangle-762"></path>
            </g>
        </g>
    </g>
</svg>