<?xml version="1.0" encoding="UTF-8" standalone="no"?>
<svg width="60px" height="60px" viewBox="0 0 60 60" version="1.1" xmlns="http://www.w3.org/2000/svg" xmlns:xlink="http://www.w3.org/1999/xlink" xmlns:sketch="http://www.bohemiancoding.com/sketch/ns">
    <!-- Generator: Sketch 3.2.2 (9983) - http://www.bohemiancoding.com/sketch -->
    <title>Grain</title>
    <desc>Created with Sketch.</desc>
    <defs></defs>
    <g id="stroked" stroke="none" stroke-width="1" fill="none" fill-rule="evenodd" sketch:type="MSPage">
        <g id="Kitchen" sketch:type="MSLayerGroup" transform="translate(-127.000000, -1078.000000)" stroke="#d9d9d9" stroke-width="2" stroke-linecap="round" stroke-linejoin="round">
            <g id="Grain" transform="translate(154.000000, 1106.000000) rotate(-45.000000) translate(-154.000000, -1106.000000) translate(129.000000, 1082.000000)" sketch:type="MSShapeGroup">
                <path d="M25,23.4349578 C27.8931514,21.4869473 29.9081249,17.1278102 29.9081249,12.0627397 C29.9081249,6.99766919 27.8931514,2.6385321 25,0.69052151 C22.1068486,2.6385321 20.0918751,6.99766919 20.0918751,12.0627397 C20.0918751,17.1278102 22.1068486,21.4869473 25,23.4349578 L25,23.4349578 Z" id="Oval-731"></path>
                <path d="M34.8977873,34.807176 C37.070559,32.8591654 38.5838144,28.5000283 38.5838144,23.4349578 C38.5838144,18.3698874 37.070559,14.0107503 34.8977873,12.0627397 C32.7250157,14.0107503 31.2117602,18.3698874 31.2117602,23.4349578 C31.2117602,28.5000283 32.7250157,32.8591654 34.8977873,34.807176 L34.8977873,34.807176 Z" id="Oval-731" transform="translate(34.897787, 23.434958) rotate(-315.000000) translate(-34.897787, -23.434958) "></path>
                <path d="M37.7775043,46.3184656 C39.732496,44.370455 41.0940757,40.0113179 41.0940757,34.9462474 C41.0940757,29.8811769 39.732496,25.5220398 37.7775043,23.5740292 C35.8225126,25.5220398 34.4609329,29.8811769 34.4609329,34.9462474 C34.4609329,40.0113179 35.8225126,44.370455 37.7775043,46.3184656 L37.7775043,46.3184656 Z" id="Oval-731" transform="translate(37.777504, 34.946247) rotate(-289.000000) translate(-37.777504, -34.946247) "></path>
                <path d="M35.1354536,53.8659202 C36.6014372,52.4051714 37.6224408,49.1363986 37.6224408,45.3382697 C37.6224408,41.5401407 36.6014372,38.2713679 35.1354536,36.8106191 C33.6694699,38.2713679 32.6484663,41.5401407 32.6484663,45.3382697 C32.6484663,49.1363986 33.6694699,52.4051714 35.1354536,53.8659202 L35.1354536,53.8659202 Z" id="Oval-731" transform="translate(35.135454, 45.338270) rotate(-271.000000) translate(-35.135454, -45.338270) "></path>
                <path d="M15.1354536,53.8659202 C16.6014372,52.4051714 17.6224408,49.1363986 17.6224408,45.3382697 C17.6224408,41.5401407 16.6014372,38.2713679 15.1354536,36.8106191 C13.6694699,38.2713679 12.6484663,41.5401407 12.6484663,45.3382697 C12.6484663,49.1363986 13.6694699,52.4051714 15.1354536,53.8659202 L15.1354536,53.8659202 Z" id="Oval-732" transform="translate(15.135454, 45.338270) scale(-1, 1) rotate(-271.000000) translate(-15.135454, -45.338270) "></path>
                <path d="M12.6675865,46.3184656 C14.6225781,44.370455 15.9841578,40.0113179 15.9841578,34.9462474 C15.9841578,29.8811769 14.6225781,25.5220398 12.6675865,23.5740292 C10.7125948,25.5220398 9.3510151,29.8811769 9.3510151,34.9462474 C9.3510151,40.0113179 10.7125948,44.370455 12.6675865,46.3184656 L12.6675865,46.3184656 Z" id="Oval-731" transform="translate(12.667586, 34.946247) scale(-1, 1) rotate(-289.000000) translate(-12.667586, -34.946247) "></path>
                <path d="M15.8977873,35.0200055 C18.070559,33.0719949 19.5838144,28.7128578 19.5838144,23.6477873 C19.5838144,18.5827168 18.070559,14.2235797 15.8977873,12.2755692 C13.7250157,14.2235797 12.2117602,18.5827168 12.2117602,23.6477873 C12.2117602,28.7128578 13.7250157,33.0719949 15.8977873,35.0200055 L15.8977873,35.0200055 Z" id="Oval-731" transform="translate(15.897787, 23.647787) scale(-1, 1) rotate(-315.000000) translate(-15.897787, -23.647787) "></path>
            </g>
        </g>
    </g>
</svg>