<?xml version="1.0" encoding="UTF-8" standalone="no"?>
<svg width="60px" height="60px" viewBox="0 0 60 60" version="1.1" xmlns="http://www.w3.org/2000/svg" xmlns:xlink="http://www.w3.org/1999/xlink" xmlns:sketch="http://www.bohemiancoding.com/sketch/ns">
    <!-- Generator: Sketch 3.2.2 (9983) - http://www.bohemiancoding.com/sketch -->
    <title>Waterlemon</title>
    <desc>Created with Sketch.</desc>
    <defs></defs>
    <g id="stroked" stroke="none" stroke-width="1" fill="none" fill-rule="evenodd" sketch:type="MSPage">
        <g id="Kitchen" sketch:type="MSLayerGroup" transform="translate(-247.000000, -838.000000)" stroke="#d9d9d9" stroke-width="2" stroke-linecap="round" stroke-linejoin="round">
            <g id="Waterlemon" transform="translate(283.405592, 875.473868) rotate(-45.000000) translate(-283.405592, -875.473868) translate(252.405592, 863.473868)" sketch:type="MSShapeGroup">
                <path d="M61.884607,4.28990177e-13 C58.1931988,13.595554 45.7642782,23.5944084 31,23.5944084 C16.2357218,23.5944084 3.80680125,13.595554 0.115393044,4.30766534e-13 L61.884607,0 Z" id="Oval-704"></path>
                <path d="M56.5238573,9.5772279e-12 C52.8352272,10.5415787 42.8005775,18.102414 31,18.102414 C19.1994225,18.102414 9.16477279,10.5415787 5.47614271,9.57900426e-12 L56.5238573,0 Z" id="Oval-705"></path>
                <path d="M20,4 L19,5" id="Line"></path>
                <path d="M24,7 L24,9" id="Line"></path>
                <path d="M35,5 L34,6" id="Line"></path>
                <path d="M40,6 L40,7" id="Line"></path>
                <path d="M31,11 L34,12" id="Line"></path>
                <path d="M47,4 L46,5" id="Line"></path>
            </g>
        </g>
    </g>
</svg>