<?xml version="1.0" encoding="UTF-8" standalone="no"?>
<svg width="60px" height="60px" viewBox="0 0 60 60" version="1.1" xmlns="http://www.w3.org/2000/svg" xmlns:xlink="http://www.w3.org/1999/xlink" xmlns:sketch="http://www.bohemiancoding.com/sketch/ns">
    <!-- Generator: Sketch 3.2.2 (9983) - http://www.bohemiancoding.com/sketch -->
    <title>Pepper</title>
    <desc>Created with Sketch.</desc>
    <defs></defs>
    <g id="stroked" stroke="none" stroke-width="1" fill="none" fill-rule="evenodd" sketch:type="MSPage">
        <g id="Kitchen" sketch:type="MSLayerGroup" transform="translate(-367.000000, -718.000000)" stroke="#d9d9d9" stroke-width="2" stroke-linejoin="round">
            <g id="Pepper" transform="translate(399.010408, 748.803301) rotate(-225.000000) translate(-399.010408, -748.803301) translate(385.510408, 718.303301)" sketch:type="MSShapeGroup">
                <path d="M3,30 L24,30 L25.8118449,58.0835953 C25.9157601,59.6942811 24.6910906,61 23.0709712,61 L3.92902879,61 C2.31137086,61 1.08466006,59.6877691 1.18815514,58.0835953 L3,30 Z" id="Rectangle-749" stroke-linecap="round"></path>
                <path d="M1,31 L26.0199928,31" id="Line" stroke-linecap="square"></path>
                <path d="M25,28 C25,21.372583 19.8512746,16 13.5,16 C7.14872538,16 2,21.372583 2,28 L25,28 Z" id="Oval-688" stroke-linecap="round"></path>
                <path d="M7.98959237,38.8535534 L20.0104074,50.8743687" id="Line" stroke-linecap="round"></path>
                <path d="M5.16116524,10.5692821 L6.16116524,12.5692821" id="Line" stroke-linecap="square"></path>
                <path d="M14.3535534,8.4479618 L16.3535534,9.4479618" id="Line" stroke-linecap="square"></path>
                <path d="M24.2530483,14.104816 L25.2530483,16.104816" id="Line" stroke-linecap="square"></path>
                <path d="M20.7175144,3.49821433 L21.7175144,5.49821433" id="Line" stroke-linecap="square"></path>
                <path d="M9.40380592,0.669787207 L10.4038059,1.66978721" id="Line" stroke-linecap="square"></path>
            </g>
        </g>
    </g>
</svg>