<?xml version="1.0" encoding="UTF-8" standalone="no"?>
<svg width="60px" height="60px" viewBox="0 0 60 60" version="1.1" xmlns="http://www.w3.org/2000/svg" xmlns:xlink="http://www.w3.org/1999/xlink" xmlns:sketch="http://www.bohemiancoding.com/sketch/ns">
    <!-- Generator: Sketch 3.2.2 (9983) - http://www.bohemiancoding.com/sketch -->
    <title>Salami</title>
    <desc>Created with Sketch.</desc>
    <defs></defs>
    <g id="stroked" stroke="none" stroke-width="1" fill="none" fill-rule="evenodd" sketch:type="MSPage">
        <g id="Kitchen" sketch:type="MSLayerGroup" transform="translate(-367.000000, -838.000000)" stroke="#d9d9d9" stroke-width="2" stroke-linejoin="round">
            <g id="Salami" transform="translate(371.000000, 853.000000)" sketch:type="MSShapeGroup">
                <ellipse id="Oval-706" stroke-linecap="round" cx="18" cy="31" rx="10" ry="6"></ellipse>
                <path d="M10,0 C4.4771525,0 0,4.4771525 0,10 C0,15.5228475 4.4771525,20 10,20 L30.9993884,20 C36.5254411,20 41,15.5228475 41,10 C41,4.47593818 36.5225737,0 30.9993884,0 L10,0 Z" id="Oval-707" stroke-linecap="round"></path>
                <circle id="Oval-708" stroke-linecap="round" cx="10" cy="10" r="10"></circle>
                <path d="M41.0440581,7.00808616 C41.0440581,7.00808616 46.3656968,2.95592639 47.2709099,2.53617951 C48.1761229,2.11643262 46.4208478,6.08669067 47.4238153,8.55299268 C48.4267829,11.0192947 48.7401893,11.4799928 48.7401893,11.4799928 L41.2511245,10.3109101 L41.0440581,7.00808616 Z" id="Path-1587" stroke-linecap="round"></path>
                <path d="M6,5 L6,7" id="Line"></path>
                <path d="M13,8 L13,10" id="Line"></path>
                <path d="M19,27 L19,29" id="Line"></path>
                <path d="M12,14 L12,16" id="Line"></path>
                <path d="M21,32 L21,34" id="Line"></path>
                <path d="M9,10 L9,12" id="Line"></path>
                <path d="M11,4 L11,6" id="Line-236"></path>
                <path d="M14,30 L14,32" id="Line"></path>
                <path d="M5,13 L5,15" id="Line"></path>
            </g>
        </g>
    </g>
</svg>