<?xml version="1.0" encoding="UTF-8" standalone="no"?>
<svg width="60px" height="60px" viewBox="0 0 60 60" version="1.1" xmlns="http://www.w3.org/2000/svg" xmlns:xlink="http://www.w3.org/1999/xlink" xmlns:sketch="http://www.bohemiancoding.com/sketch/ns">
    <!-- Generator: Sketch 3.2.2 (9983) - http://www.bohemiancoding.com/sketch -->
    <title>Chilli</title>
    <desc>Created with Sketch.</desc>
    <defs></defs>
    <g id="stroked" stroke="none" stroke-width="1" fill="none" fill-rule="evenodd" sketch:type="MSPage">
        <g id="Kitchen" sketch:type="MSLayerGroup" transform="translate(-607.000000, -118.000000)" stroke="#d9d9d9" stroke-width="2" stroke-linecap="round" stroke-linejoin="round">
            <g id="Chilli" transform="translate(634.500000, 146.500000) rotate(5.000000) translate(-634.500000, -146.500000) translate(606.000000, 118.000000)" sketch:type="MSShapeGroup">
                <path d="M52.1961405,15.4734406 C48.4368103,11.713358 40.6610098,15.4734406 40.6610098,15.4734406 C40.6610098,15.4734406 20.7771564,23.5138969 16.6388858,32.6528307 C12.5006153,41.7917644 3.6970135,52.8787824 3.6970135,52.8787824 C3.6970135,52.8787824 15.2707802,52.9843225 24.815395,42.3037348 C34.3600098,31.623147 46.2090318,29.8852113 49.5909243,25.69055 C51.3587743,23.4978333 55.9554708,19.2335232 52.1961405,15.4734406 Z" id="Path-1388" transform="translate(28.665725, 33.340557) rotate(-9.000000) translate(-28.665725, -33.340557) "></path>
                <path d="M37.2450841,18.8667626 C37.2450841,18.8667626 28.0301996,24.8493026 25.4093465,28.7435402" id="Path-1389"></path>
                <path d="M50.640217,12.4397221 C50.640217,12.4397221 56.0677386,12.9917045 54.0978482,1.14017848" id="Path-1390" transform="translate(52.584343, 6.791954) rotate(12.000000) translate(-52.584343, -6.791954) "></path>
            </g>
        </g>
    </g>
</svg>