<?xml version="1.0" encoding="UTF-8" standalone="no"?>
<svg width="60px" height="60px" viewBox="0 0 60 60" version="1.1" xmlns="http://www.w3.org/2000/svg" xmlns:xlink="http://www.w3.org/1999/xlink" xmlns:sketch="http://www.bohemiancoding.com/sketch/ns">
    <!-- Generator: Sketch 3.2.2 (9983) - http://www.bohemiancoding.com/sketch -->
    <title>Cookie</title>
    <desc>Created with Sketch.</desc>
    <defs></defs>
    <g id="stroked" stroke="none" stroke-width="1" fill="none" fill-rule="evenodd" sketch:type="MSPage">
        <g id="Kitchen" sketch:type="MSLayerGroup" transform="translate(-847.000000, -598.000000)" stroke="#d9d9d9" stroke-width="2" stroke-linejoin="round">
            <g id="Cookie" transform="translate(850.000000, 599.000000)" sketch:type="MSShapeGroup">
                <path d="M46.6691642,26.0672581 C46.9352915,26.0331018 47.2063966,26.0155086 47.4814815,26.0155086 C51.0815599,26.0155086 54,29.028772 54,32.7458207 C54,36.4628695 51.0815599,39.4761329 47.4814815,39.4761329 C46.286543,39.4761329 45.1667014,39.1441588 44.2037517,38.5646634 C43.0866617,40.6149974 40.9592426,42 38.5185185,42 C37.8609772,42 37.2261752,41.8994784 36.6277413,41.712507 C35.4454806,45.9173394 31.5827373,49 27,49 C22.4172627,49 18.5545194,45.9173394 17.3722587,41.712507 C16.7738248,41.8994784 16.1390228,42 15.4814815,42 C13.0407574,42 10.9133383,40.6149974 9.79624832,38.5646634 L9.79624832,38.5646634 C8.83329865,39.1441588 7.71345695,39.4761329 6.51851852,39.4761329 C2.91844015,39.4761329 0,36.4628695 0,32.7458207 C0,29.028772 2.91844015,26.0155086 6.51851852,26.0155086 C6.7936029,26.0155086 7.06470748,26.0331018 7.33083434,26.0672579 C9.12550379,19.2028846 15.4560451,11.4324494 21.7607249,8.46554124 L27,6 C27,6 32.2392751,8.46554124 32.2392751,8.46554124 C38.5411138,11.4311124 44.8740783,19.2014214 46.6691642,26.0672581 Z" id="Oval-676" stroke-linecap="round"></path>
                <path d="M26.709631,9.55588171 C26.709631,9.55588171 25.1992029,4.24804548 32.9792024,0.531417732" id="Path-1549" stroke-linecap="round"></path>
                <path d="M4.09257101,38.4246224 C6.49775041,48.8622978 15.848153,56.6448865 27.0162766,56.6448865 C38.2265498,56.6448865 47.6053556,48.8034424 49.9669173,38.3063308" id="Oval-681" stroke-linecap="round"></path>
                <path d="M40,18 L34,29" id="Line" stroke-linecap="square" transform="translate(37.000000, 23.500000) scale(-1, 1) translate(-37.000000, -23.500000) "></path>
                <path d="M32,33 L30,22" id="Line" stroke-linecap="square"></path>
            </g>
        </g>
    </g>
</svg>