<?xml version="1.0" encoding="UTF-8" standalone="no"?>
<svg width="60px" height="60px" viewBox="0 0 60 60" version="1.1" xmlns="http://www.w3.org/2000/svg" xmlns:xlink="http://www.w3.org/1999/xlink" xmlns:sketch="http://www.bohemiancoding.com/sketch/ns">
    <!-- Generator: Sketch 3.2.2 (9983) - http://www.bohemiancoding.com/sketch -->
    <title>Herbaltea</title>
    <desc>Created with Sketch.</desc>
    <defs></defs>
    <g id="stroked" stroke="none" stroke-width="1" fill="none" fill-rule="evenodd" sketch:type="MSPage">
        <g id="Kitchen" sketch:type="MSLayerGroup" transform="translate(-607.000000, -1198.000000)" stroke="#d9d9d9" stroke-width="2" stroke-linecap="round" stroke-linejoin="round">
            <g id="Herbaltea" transform="translate(621.000000, 1201.000000)" sketch:type="MSShapeGroup">
                <rect id="Rectangle-789" x="0" y="14" width="29" height="40" rx="2"></rect>
                <rect id="Rectangle-790" x="27" y="21" width="12" height="19" rx="2"></rect>
                <path d="M7.19268374,42.9896383 C7.19268374,42.9896383 4.1614458,32.2709721 11.7608257,31.34359 C19.3602057,30.4162078 22.5931619,27 22.5931619,27 C22.5931619,27 22.8997385,39.0442553 18.6986262,41.3439756 C14.4975139,43.6436958 7.19268374,42.9896383 7.19268374,42.9896383 Z" id="Path-1714"></path>
                <path d="M18.4928092,33.061851 C16.7656584,37.0207299 13.9518024,37.3698493 10.9314849,39.1009575" id="Path-1715"></path>
                <path d="M15.5,0.452954132 C15.5,0.452954132 10.6407008,1.91620102 13.8097364,6.01191981 C16.9787719,10.1076386 13.4563227,11.5470459 13.4563227,11.5470459" id="Path-1350"></path>
            </g>
        </g>
    </g>
</svg>