<?xml version="1.0" encoding="UTF-8" standalone="no"?>
<svg width="60px" height="60px" viewBox="0 0 60 60" version="1.1" xmlns="http://www.w3.org/2000/svg" xmlns:xlink="http://www.w3.org/1999/xlink" xmlns:sketch="http://www.bohemiancoding.com/sketch/ns">
    <!-- Generator: Sketch 3.2.2 (9983) - http://www.bohemiancoding.com/sketch -->
    <title>Pasta</title>
    <desc>Created with Sketch.</desc>
    <defs></defs>
    <g id="stroked" stroke="none" stroke-width="1" fill="none" fill-rule="evenodd" sketch:type="MSPage">
        <g id="Kitchen" sketch:type="MSLayerGroup" transform="translate(-127.000000, 2.000000)" stroke="#000000" stroke-width="2" stroke-linejoin="round">
            <g id="Pasta" transform="translate(132.000000, 15.000000)" sketch:type="MSShapeGroup">
                <path d="M0.893899798,30.7877996 C0.400212572,29.8004251 0.89599229,29 1.99926044,29 L49.0007396,29 C50.1049006,29 50.599281,29.8014379 50.1061002,30.7877996 L46.8938998,37.2122004 C46.4002126,38.1995749 45.1055269,39 43.9947301,39 L7.00526988,39 C5.89778991,39 4.59928103,38.1985621 4.1061002,37.2122004 L0.893899798,30.7877996 Z" id="Rectangle-672" stroke-linecap="round"></path>
                <path d="M49,1 L7,3" id="Line" stroke-linecap="square"></path>
                <path d="M49,8 L8,0" id="Line" stroke-linecap="square"></path>
                <path d="M9,1 L9,29" id="Line" stroke-linecap="round"></path>
                <path d="M13,6 L13,29" id="Line" stroke-linecap="round"></path>
                <path d="M15.8615476,29.8674394 C15.8615476,29.8674394 15.4960574,26.9557845 22.8380399,25.9198621 C30.1800224,24.8839398 30.2496405,27.5768699 34.6233965,27.5768699 C38.9971524,27.5768698 42.7701956,25.0613371 45.3729327,26.3191035 C47.9756699,27.57687 47.4356075,30 47.4356075,30" id="Path-1550" stroke-linecap="round"></path>
                <path d="M44.3298582,29.6007586 C44.3298582,29.6007586 44.4047494,24.961137 39.7256264,24.2952148 C35.0465034,23.6292926 28.6058526,20.0150663 27.2045421,23.4815265 C25.8032317,26.9479867 20.1884946,29.626491 20.1884946,29.626491" id="Path-1551" stroke-linecap="round"></path>
            </g>
        </g>
    </g>
</svg>